HIERARCHY
ROOT ui
{
	 OFFSET 0 0 0
	 CHANNELS 3 XPosition YPosition Z Position
	 EndSite
	 {
	 OFFSET 0 -1 0
	 }
}
ROOT li
{
	 OFFSET 0 0 0
	 CHANNELS 3 XPosition YPosition Z Position
	 EndSite
	 {
	 OFFSET 0 -1 0
	 }
}
ROOT ul
{
	 OFFSET 0 0 0
	 CHANNELS 3 XPosition YPosition Z Position
	 EndSite
	 {
	 OFFSET 0 -1 0
	 }
}
ROOT ll
{
	 OFFSET 0 0 0
	 CHANNELS 3 XPosition YPosition Z Position
	 EndSite
	 {
	 OFFSET 0 -1 0
	 }
}
ROOT tt
{
	 OFFSET 0 0 0
	 CHANNELS 3 XPosition YPosition Z Position
	 EndSite
	 {
	 OFFSET 0 -1 0
	 }
}
ROOT tb
{
	 OFFSET 0 0 0
	 CHANNELS 3 XPosition YPosition Z Position
	 EndSite
	 {
	 OFFSET 0 -1 0
	 }
}
ROOT td
{
	 OFFSET 0 0 0
	 CHANNELS 3 XPosition YPosition Z Position
	 EndSite
	 {
	 OFFSET 0 -1 0
	 }
}
ROOT v
{
	 OFFSET 0 0 0
	 CHANNELS 3 XPosition YPosition Z Position
	 EndSite
	 {
	 OFFSET 0 -1 0
	 }
}
ROOT bn
{
	 OFFSET 0 0 0
	 CHANNELS 3 XPosition YPosition Z Position
	 EndSite
	 {
	 OFFSET 0 -1 0
	 }
}
MOTION
Frames: 10
Frame Time: 0.002
-0.0032838149070739744	-9.185899794101715E-5	0		0.44338037109375	-2.302333984375	0		-1.12931884765625	0.0013530219793319702	0		-0.8123429565429687	-2.266684814453125	0		1.500976318359375	-0.5180672607421875	0		3.091751708984375	0.09720355224609376	0		4.5743486328125	0.26245846557617186	0		5.62086474609375	0.20185511779785156	0		-0.492090087890625	5.84469384765625	0		
-0.020908740997314452	0.006711187839508056	0		0.45174627685546875	-2.29399267578125	0		-1.048986572265625	0.0037059650421142577	0		-0.7330421752929688	-2.266472900390625	0		1.5680577392578126	-0.518761474609375	0		3.1154013671875	0.12622579193115235	0		4.58576123046875	0.25893731689453126	0		5.6226337890625	0.23843467712402344	0		-0.35397802734375	5.86422607421875	0		
-0.019637489318847658	0.0063424320220947265	0		0.4499893493652344	-2.2965478515625	0		-1.1286513671875	0.010610255241394043	0		-0.7347869262695312	-2.268509033203125	0		1.56605810546875	-0.523795654296875	0		3.07448291015625	0.1009109878540039	0		4.587142578125	0.2565503845214844	0		5.61840966796875	0.20950138854980468	0		-0.3652312622070312	5.85515576171875	0		
0.0035413200855255126	0.0017499109506607055	0		0.4721481628417969	-2.30533935546875	0		-1.05748388671875	0.004980517864227295	0		-0.73655126953125	-2.2705439453125	0		1.5611297607421875	-0.5177655029296875	0		3.10081787109375	0.10597261047363281	0		4.59440673828125	0.2481716766357422	0		5.6192412109375	0.204814697265625	0		-0.3615260009765625	5.85494189453125	0		
-0.0202818660736084	0.0026683149337768555	0		0.446408935546875	-2.302600341796875	0		-1.1243580322265625	0.0018032469749450684	0		-0.7383326416015625	-2.272576904296875	0		1.562082763671875	-0.5187550659179687	0		3.091947998046875	0.09746728515625	0		4.575671875	0.24616854858398438	0		5.6158330078125	0.2177342071533203	0		-0.35798178100585937	5.8547333984375	0		
0.005808635234832764	0.001053068995475769	0		0.44864645385742186	-2.3011337890625	0		-1.1232547607421874	0.001897922992706299	0		-0.73608349609375	-2.27065380859375	0		1.568905029296875	-0.526763671875	0		3.108314453125	0.11576480865478515	0		4.5909365234375	0.24990643310546876	0		5.62498095703125	0.17863958740234376	0		-0.3405096740722656	5.86437255859375	0		
-0.018139328002929687	0.002024060010910034	0		0.4239117736816406	-2.2963232421875	0		-1.124110107421875	0.011007207870483399	0		-0.803745361328125	-2.259909912109375	0		1.5727991943359374	-0.5236875	0		3.083231689453125	0.10062515258789062	0		4.596134765625	0.25387637329101564	0		5.624400390625	0.20407395935058595	0		-0.3504761962890625	5.85332861328125	0		
0.01186787986755371	0.004379633903503418	0		0.47704498291015623	-2.302406005859375	0		-1.1171947021484374	0.006014340877532959	0		-0.7336372680664063	-2.268783447265625	0		1.570546630859375	-0.5284818725585938	0		3.10033349609375	0.10709073638916015	0		4.58904833984375	0.2401226806640625	0		5.6179560546875	0.20572906494140625	0		-0.33439657592773436	5.86398828125	0		
-0.016259410858154296	0.0014566400051116944	0		0.4492341003417969	-2.30248681640625	0		-1.1272733154296875	0.007220786094665527	0		-0.73546435546875	-2.270807861328125	0		1.6883035888671876	-0.5287008666992188	0		3.095248779296875	0.1039178466796875	0		4.594103515625	0.2443601837158203	0		5.6249921875	0.20207388305664062	0		-0.3457810974121094	5.85398779296875	0		
0.009566929817199707	-1.1242400109767914E-4	0		0.4713219299316406	-2.310151123046875	0		-1.1264305419921874	0.007288092136383056	0		-0.7373020629882813	-2.27282763671875	0		1.5660653076171875	-0.5228846435546874	0		3.092055908203125	0.09782176208496093	0		4.576041015625	0.24502256774902345	0		5.6275234375	0.16421798706054688	0		-0.47651226806640623	5.83451806640625	0		
